# xmcd
# Track frame offsets:
# 150
# 17537
# 40330
# 61450
# 81165
#
# Disc length: 1395 seconds
# Revision: 0
# Processed by: cddbd v1.4PL0 Copyright (c) Steve Scherf et al.
# Submitted via: VisiTrax 2.9.5.181 - For more info visit www.synapsa.com
#
DISCID=36057105
DTITLE=Venice Gospel Ensemble - The VGE's Christmas Time Out
DYEAR=1998
DGENRE=Gospel
TTITLE0=We shall overcome
TTITLE1=I will praise him
TTITLE2=Little Bethlehem
TTITLE3=Silent night
TTITLE4=Oh happy day
EXTD=
EXTT0=
EXTT1=
EXTT2=
EXTT3=
EXTT4=
PLAYORDER=
